<?xml version="1.0" encoding="UTF-8"?>
<mxfile host="app.diagrams.net">
  <diagram name="GMAT Topics" id="gmattopics">
    <mxGraphModel dx="1280" dy="800" grid="1" gridSize="10" guides="1" tooltips="1" connect="1" arrows="1" fold="1" page="1" pageScale="1" pageWidth="850" pageHeight="1100">
      <root>
        <mxCell id="0"/>
        <mxCell id="1" parent="0"/>

        <!-- Central node -->
        <mxCell id="2" value="GMAT Topics" style="rounded=1;whiteSpace=wrap;html=1;fillColor=#ffd966;strokeColor=#bf8f00;fontSize=14;fontStyle=1;" vertex="1" parent="1">
          <mxGeometry x="320" y="20" width="220" height="60" as="geometry"/>
        </mxCell>

        <!-- Main topic nodes (row 1) -->
        <mxCell id="10" value="Brain Science" style="rounded=1;whiteSpace=wrap;html=1;fillColor=#e1f5fe;strokeColor=#0288d1;fontSize=12;" vertex="1" parent="1">
          <mxGeometry x="20" y="120" width="180" height="40" as="geometry"/>
        </mxCell>
        <mxCell id="11" value="Animal Kingdom" style="rounded=1;whiteSpace=wrap;html=1;fillColor=#f3e5f5;strokeColor=#7b1fa2;fontSize=12;" vertex="1" parent="1">
          <mxGeometry x="220" y="120" width="180" height="40" as="geometry"/>
        </mxCell>
        <mxCell id="12" value="Biology (Cell Structure)" style="rounded=1;whiteSpace=wrap;html=1;fillColor=#e8f5e9;strokeColor=#2e7d32;fontSize=12;" vertex="1" parent="1">
          <mxGeometry x="420" y="120" width="200" height="40" as="geometry"/>
        </mxCell>
        <mxCell id="13" value="American History" style="rounded=1;whiteSpace=wrap;html=1;fillColor=#fff3e0;strokeColor=#ef6c00;fontSize=12;" vertex="1" parent="1">
          <mxGeometry x="640" y="120" width="180" height="40" as="geometry"/>
        </mxCell>
        <mxCell id="14" value="American Economy & Finance" style="rounded=1;whiteSpace=wrap;html=1;fillColor=#ffebee;strokeColor=#c62828;fontSize=12;" vertex="1" parent="1">
          <mxGeometry x="840" y="120" width="220" height="40" as="geometry"/>
        </mxCell>

        <!-- Main topic nodes (row 2) -->
        <mxCell id="15" value="Challenges to Religion" style="rounded=1;whiteSpace=wrap;html=1;fillColor=#e8f5e9;strokeColor=#558b2f;fontSize=12;" vertex="1" parent="1">
          <mxGeometry x="20" y="220" width="240" height="40" as="geometry"/>
        </mxCell>
        <mxCell id="16" value="American Domination" style="rounded=1;whiteSpace=wrap;html=1;fillColor=#ede7f6;strokeColor=#5e35b1;fontSize=12;" vertex="1" parent="1">
          <mxGeometry x="300" y="220" width="220" height="40" as="geometry"/>
        </mxCell>
        <mxCell id="17" value="Political Systems & Cold War" style="rounded=1;whiteSpace=wrap;html=1;fillColor=#e1f5fe;strokeColor=#0277bd;fontSize=12;" vertex="1" parent="1">
          <mxGeometry x="540" y="220" width="260" height="40" as="geometry"/>
        </mxCell>
        <mxCell id="18" value="Groups in America" style="rounded=1;whiteSpace=wrap;html=1;fillColor=#fffde7;strokeColor=#f9a825;fontSize=12;" vertex="1" parent="1">
          <mxGeometry x="820" y="220" width="240" height="40" as="geometry"/>
        </mxCell>

        <!-- Main topic nodes (row 3) -->
        <mxCell id="19" value="Supreme Court Cases" style="rounded=1;whiteSpace=wrap;html=1;fillColor=#e8f5e9;strokeColor=#2e7d32;fontSize=12;" vertex="1" parent="1">
          <mxGeometry x="20" y="320" width="260" height="40" as="geometry"/>
        </mxCell>
        <mxCell id="20" value="Science & Latest Technology" style="rounded=1;whiteSpace=wrap;html=1;fillColor=#ffebee;strokeColor=#c62828;fontSize=12;" vertex="1" parent="1">
          <mxGeometry x="320" y="320" width="420" height="40" as="geometry"/>
        </mxCell>

        <!-- Edges from central to mains -->
        <mxCell id="e2" edge="1" parent="1" source="2" target="10" style="edgeStyle=orthogonalEdgeStyle;rounded=0;html=1;strokeColor=#666666;"><mxGeometry relative="1" as="geometry"/></mxCell>
        <mxCell id="e3" edge="1" parent="1" source="2" target="11" style="edgeStyle=orthogonalEdgeStyle;rounded=0;html=1;strokeColor=#666666;"><mxGeometry relative="1" as="geometry"/></mxCell>
        <mxCell id="e4" edge="1" parent="1" source="2" target="12" style="edgeStyle=orthogonalEdgeStyle;rounded=0;html=1;strokeColor=#666666;"><mxGeometry relative="1" as="geometry"/></mxCell>
        <mxCell id="e5" edge="1" parent="1" source="2" target="13" style="edgeStyle=orthogonalEdgeStyle;rounded=0;html=1;strokeColor=#666666;"><mxGeometry relative="1" as="geometry"/></mxCell>
        <mxCell id="e6" edge="1" parent="1" source="2" target="14" style="edgeStyle=orthogonalEdgeStyle;rounded=0;html=1;strokeColor=#666666;"><mxGeometry relative="1" as="geometry"/></mxCell>
        <mxCell id="e7" edge="1" parent="1" source="2" target="15" style="edgeStyle=orthogonalEdgeStyle;rounded=0;html=1;strokeColor=#666666;"><mxGeometry relative="1" as="geometry"/></mxCell>
        <mxCell id="e8" edge="1" parent="1" source="2" target="16" style="edgeStyle=orthogonalEdgeStyle;rounded=0;html=1;strokeColor=#666666;"><mxGeometry relative="1" as="geometry"/></mxCell>
        <mxCell id="e9" edge="1" parent="1" source="2" target="17" style="edgeStyle=orthogonalEdgeStyle;rounded=0;html=1;strokeColor=#666666;"><mxGeometry relative="1" as="geometry"/></mxCell>
        <mxCell id="e10" edge="1" parent="1" source="2" target="18" style="edgeStyle=orthogonalEdgeStyle;rounded=0;html=1;strokeColor=#666666;"><mxGeometry relative="1" as="geometry"/></mxCell>
        <mxCell id="e11" edge="1" parent="1" source="2" target="19" style="edgeStyle=orthogonalEdgeStyle;rounded=0;html=1;strokeColor=#666666;"><mxGeometry relative="1" as="geometry"/></mxCell>
        <mxCell id="e12" edge="1" parent="1" source="2" target="20" style="edgeStyle=orthogonalEdgeStyle;rounded=0;html=1;strokeColor=#666666;"><mxGeometry relative="1" as="geometry"/></mxCell>

        <!-- Subtopics for Brain Science (10) -->
        <mxCell id="101" value="Evolution of nervous systems" style="rounded=1;whiteSpace=wrap;html=1;fillColor=#ffffff;strokeColor=#0288d1;fontSize=11;" vertex="1" parent="1">
          <mxGeometry x="20" y="180" width="180" height="30" as="geometry"/>
        </mxCell>
        <mxCell id="102" value="Key brain structures" style="rounded=1;whiteSpace=wrap;html=1;fillColor=#ffffff;strokeColor=#0288d1;fontSize=11;" vertex="1" parent="1">
          <mxGeometry x="20" y="220" width="180" height="30" as="geometry"/>
        </mxCell>
        <mxCell id="103" value="Cognition & behavior" style="rounded=1;whiteSpace=wrap;html=1;fillColor=#ffffff;strokeColor=#0288d1;fontSize=11;" vertex="1" parent="1">
          <mxGeometry x="20" y="260" width="180" height="30" as="geometry"/>
        </mxCell>
        <mxCell id="e101" edge="1" parent="1" source="10" target="101"><mxGeometry relative="1" as="geometry"/></mxCell>
        <mxCell id="e102" edge="1" parent="1" source="10" target="102"><mxGeometry relative="1" as="geometry"/></mxCell>
        <mxCell id="e103" edge="1" parent="1" source="10" target="103"><mxGeometry relative="1" as="geometry"/></mxCell>

        <!-- Subtopics for Animal Kingdom (11) -->
        <mxCell id="111" value="Classification & taxonomy" style="rounded=1;whiteSpace=wrap;html=1;fillColor=#ffffff;strokeColor=#7b1fa2;fontSize=11;" vertex="1" parent="1">
          <mxGeometry x="220" y="180" width="180" height="30" as="geometry"/>
        </mxCell>
        <mxCell id="112" value="Adaptations & niches" style="rounded=1;whiteSpace=wrap;html=1;fillColor=#ffffff;strokeColor=#7b1fa2;fontSize=11;" vertex="1" parent="1">
          <mxGeometry x="220" y="220" width="180" height="30" as="geometry"/>
        </mxCell>
        <mxCell id="113" value="Behavior & social systems" style="rounded=1;whiteSpace=wrap;html=1;fillColor=#ffffff;strokeColor=#7b1fa2;fontSize=11;" vertex="1" parent="1">
          <mxGeometry x="220" y="260" width="180" height="30" as="geometry"/>
        </mxCell>
        <mxCell id="e111" edge="1" parent="1" source="11" target="111"><mxGeometry relative="1" as="geometry"/></mxCell>
        <mxCell id="e112" edge="1" parent="1" source="11" target="112"><mxGeometry relative="1" as="geometry"/></mxCell>
        <mxCell id="e113" edge="1" parent="1" source="11" target="113"><mxGeometry relative="1" as="geometry"/></mxCell>

        <!-- Subtopics for Biology (12) -->
        <mxCell id="121" value="Cell types: prokaryote/eukaryote" style="rounded=1;whiteSpace=wrap;html=1;fillColor=#ffffff;strokeColor=#2e7d32;fontSize=11;" vertex="1" parent="1">
          <mxGeometry x="420" y="180" width="200" height="30" as="geometry"/>
        </mxCell>
        <mxCell id="122" value="Organelles & function" style="rounded=1;whiteSpace=wrap;html=1;fillColor=#ffffff;strokeColor=#2e7d32;fontSize=11;" vertex="1" parent="1">
          <mxGeometry x="420" y="220" width="200" height="30" as="geometry"/>
        </mxCell>
        <mxCell id="123" value="Cell division (mitosis/meiosis)" style="rounded=1;whiteSpace=wrap;html=1;fillColor=#ffffff;strokeColor=#2e7d32;fontSize=11;" vertex="1" parent="1">
          <mxGeometry x="420" y="260" width="200" height="30" as="geometry"/>
        </mxCell>
        <mxCell id="e121" edge="1" parent="1" source="12" target="121"><mxGeometry relative="1" as="geometry"/></mxCell>
        <mxCell id="e122" edge="1" parent="1" source="12" target="122"><mxGeometry relative="1" as="geometry"/></mxCell>
        <mxCell id="e123" edge="1" parent="1" source="12" target="123"><mxGeometry relative="1" as="geometry"/></mxCell>

        <!-- Subtopics for American History (13) -->
        <mxCell id="131" value="Causes of Independence" style="rounded=1;whiteSpace=wrap;html=1;fillColor=#ffffff;strokeColor=#ef6c00;fontSize=11;" vertex="1" parent="1">
          <mxGeometry x="640" y="180" width="180" height="30" as="geometry"/>
        </mxCell>
        <mxCell id="132" value="Constitution & early republic" style="rounded=1;whiteSpace=wrap;html=1;fillColor=#ffffff;strokeColor=#ef6c00;fontSize=11;" vertex="1" parent="1">
          <mxGeometry x="640" y="220" width="180" height="30" as="geometry"/>
        </mxCell>
        <mxCell id="133" value="Civil War & Reconstruction" style="rounded=1;whiteSpace=wrap;html=1;fillColor=#ffffff;strokeColor=#ef6c00;fontSize=11;" vertex="1" parent="1">
          <mxGeometry x="640" y="260" width="180" height="30" as="geometry"/>
        </mxCell>
        <mxCell id="e131" edge="1" parent="1" source="13" target="131"><mxGeometry relative="1" as="geometry"/></mxCell>
        <mxCell id="e132" edge="1" parent="1" source="13" target="132"><mxGeometry relative="1" as="geometry"/></mxCell>
        <mxCell id="e133" edge="1" parent="1" source="13" target="133"><mxGeometry relative="1" as="geometry"/></mxCell>

        <!-- Subtopics for American Economy (14) -->
        <mxCell id="141" value="Foundational economics" style="rounded=1;whiteSpace=wrap;html=1;fillColor=#ffffff;strokeColor=#c62828;fontSize=11;" vertex="1" parent="1">
          <mxGeometry x="840" y="180" width="220" height="30" as="geometry"/>
        </mxCell>
        <mxCell id="142" value="Financial markets" style="rounded=1;whiteSpace=wrap;html=1;fillColor=#ffffff;strokeColor=#c62828;fontSize=11;" vertex="1" parent="1">
          <mxGeometry x="840" y="220" width="220" height="30" as="geometry"/>
        </mxCell>
        <mxCell id="143" value="Monetary & fiscal policy" style="rounded=1;whiteSpace=wrap;html=1;fillColor=#ffffff;strokeColor=#c62828;fontSize=11;" vertex="1" parent="1">
          <mxGeometry x="840" y="260" width="220" height="30" as="geometry"/>
        </mxCell>
        <mxCell id="e141" edge="1" parent="1" source="14" target="141"><mxGeometry relative="1" as="geometry"/></mxCell>
        <mxCell id="e142" edge="1" parent="1" source="14" target="142"><mxGeometry relative="1" as="geometry"/></mxCell>
        <mxCell id="e143" edge="1" parent="1" source="14" target="143"><mxGeometry relative="1" as="geometry"/></mxCell>

        <!-- Subtopics for Challenges to Religion (15) -->
        <mxCell id="151" value="Enlightenment critiques" style="rounded=1;whiteSpace=wrap;html=1;fillColor=#ffffff;strokeColor=#558b2f;fontSize=11;" vertex="1" parent="1">
          <mxGeometry x="20" y="280" width="240" height="30" as="geometry"/>
        </mxCell>
        <mxCell id="152" value="Science vs religion" style="rounded=1;whiteSpace=wrap;html=1;fillColor=#ffffff;strokeColor=#558b2f;fontSize=11;" vertex="1" parent="1">
          <mxGeometry x="20" y="320" width="240" height="30" as="geometry"/>
        </mxCell>
        <mxCell id="153" value="Secularism & philosophy" style="rounded=1;whiteSpace=wrap;html=1;fillColor=#ffffff;strokeColor=#558b2f;fontSize=11;" vertex="1" parent="1">
          <mxGeometry x="20" y="360" width="240" height="30" as="geometry"/>
        </mxCell>
        <mxCell id="e151" edge="1" parent="1" source="15" target="151"><mxGeometry relative="1" as="geometry"/></mxCell>
        <mxCell id="e152" edge="1" parent="1" source="15" target="152"><mxGeometry relative="1" as="geometry"/></mxCell>
        <mxCell id="e153" edge="1" parent="1" source="15" target="153"><mxGeometry relative="1" as="geometry"/></mxCell>

        <!-- Subtopics for American Domination (16) -->
        <mxCell id="161" value="Military power & WWII" style="rounded=1;whiteSpace=wrap;html=1;fillColor=#ffffff;strokeColor=#5e35b1;fontSize=11;" vertex="1" parent="1">
          <mxGeometry x="300" y="280" width="220" height="30" as="geometry"/>
        </mxCell>
        <mxCell id="162" value="Economic influence" style="rounded=1;whiteSpace=wrap;html=1;fillColor=#ffffff;strokeColor=#5e35b1;fontSize=11;" vertex="1" parent="1">
          <mxGeometry x="300" y="320" width="220" height="30" as="geometry"/>
        </mxCell>
        <mxCell id="163" value="Cultural soft power" style="rounded=1;whiteSpace=wrap;html=1;fillColor=#ffffff;strokeColor=#5e35b1;fontSize=11;" vertex="1" parent="1">
          <mxGeometry x="300" y="360" width="220" height="30" as="geometry"/>
        </mxCell>
        <mxCell id="e161" edge="1" parent="1" source="16" target="161"><mxGeometry relative="1" as="geometry"/></mxCell>
        <mxCell id="e162" edge="1" parent="1" source="16" target="162"><mxGeometry relative="1" as="geometry"/></mxCell>
        <mxCell id="e163" edge="1" parent="1" source="16" target="163"><mxGeometry relative="1" as="geometry"/></mxCell>

        <!-- Subtopics for Political Systems (17) -->
        <mxCell id="171" value="Ideologies (capitalism, socialism)" style="rounded=1;whiteSpace=wrap;html=1;fillColor=#ffffff;strokeColor=#0277bd;fontSize=11;" vertex="1" parent="1">
          <mxGeometry x="540" y="280" width="260" height="30" as="geometry"/>
        </mxCell>
        <mxCell id="172" value="Cold War conflicts" style="rounded=1;whiteSpace=wrap;html=1;fillColor=#ffffff;strokeColor=#0277bd;fontSize=11;" vertex="1" parent="1">
          <mxGeometry x="540" y="320" width="260" height="30" as="geometry"/>
        </mxCell>
        <mxCell id="173" value="Fall of USSR & transition" style="rounded=1;whiteSpace=wrap;html=1;fillColor=#ffffff;strokeColor=#0277bd;fontSize=11;" vertex="1" parent="1">
          <mxGeometry x="540" y="360" width="260" height="30" as="geometry"/>
        </mxCell>
        <mxCell id="e171" edge="1" parent="1" source="17" target="171"><mxGeometry relative="1" as="geometry"/></mxCell>
        <mxCell id="e172" edge="1" parent="1" source="17" target="172"><mxGeometry relative="1" as="geometry"/></mxCell>
        <mxCell id="e173" edge="1" parent="1" source="17" target="173"><mxGeometry relative="1" as="geometry"/></mxCell>

        <!-- Subtopics for Groups in America (18) -->
        <mxCell id="181" value="Slavery & Civil Rights" style="rounded=1;whiteSpace=wrap;html=1;fillColor=#ffffff;strokeColor=#f9a825;fontSize=11;" vertex="1" parent="1">
          <mxGeometry x="820" y="280" width="240" height="30" as="geometry"/>
        </mxCell>
        <mxCell id="182" value="Immigration & identity" style="rounded=1;whiteSpace=wrap;html=1;fillColor=#ffffff;strokeColor=#f9a825;fontSize=11;" vertex="1" parent="1">
          <mxGeometry x="820" y="320" width="240" height="30" as="geometry"/>
        </mxCell>
        <mxCell id="183" value="Contemporary policy issues" style="rounded=1;whiteSpace=wrap;html=1;fillColor=#ffffff;strokeColor=#f9a825;fontSize=11;" vertex="1" parent="1">
          <mxGeometry x="820" y="360" width="240" height="30" as="geometry"/>
        </mxCell>
        <mxCell id="e181" edge="1" parent="1" source="18" target="181"><mxGeometry relative="1" as="geometry"/></mxCell>
        <mxCell id="e182" edge="1" parent="1" source="18" target="182"><mxGeometry relative="1" as="geometry"/></mxCell>
        <mxCell id="e183" edge="1" parent="1" source="18" target="183"><mxGeometry relative="1" as="geometry"/></mxCell>

        <!-- Subtopics for Supreme Court Cases (19) -->
        <mxCell id="191" value="Judicial review & Marbury" style="rounded=1;whiteSpace=wrap;html=1;fillColor=#ffffff;strokeColor=#2e7d32;fontSize=11;" vertex="1" parent="1">
          <mxGeometry x="20" y="380" width="260" height="30" as="geometry"/>
        </mxCell>
        <mxCell id="192" value="Civil rights cases (Brown, Dred Scott)" style="rounded=1;whiteSpace=wrap;html=1;fillColor=#ffffff;strokeColor=#2e7d32;fontSize=11;" vertex="1" parent="1">
          <mxGeometry x="20" y="420" width="260" height="30" as="geometry"/>
        </mxCell>
        <mxCell id="193" value="Modern cases (Roe, Citizens United)" style="rounded=1;whiteSpace=wrap;html=1;fillColor=#ffffff;strokeColor=#2e7d32;fontSize=11;" vertex="1" parent="1">
          <mxGeometry x="20" y="460" width="260" height="30" as="geometry"/>
        </mxCell>
        <mxCell id="e191" edge="1" parent="1" source="19" target="191"><mxGeometry relative="1" as="geometry"/></mxCell>
        <mxCell id="e192" edge="1" parent="1" source="19" target="192"><mxGeometry relative="1" as="geometry"/></mxCell>
        <mxCell id="e193" edge="1" parent="1" source="19" target="193"><mxGeometry relative="1" as="geometry"/></mxCell>

        <!-- Subtopics for Science & Tech (20) -->
        <mxCell id="201" value="Biology & Genetics" style="rounded=1;whiteSpace=wrap;html=1;fillColor=#ffffff;strokeColor=#c62828;fontSize=11;" vertex="1" parent="1">
          <mxGeometry x="320" y="380" width="160" height="30" as="geometry"/>
        </mxCell>
        <mxCell id="202" value="Astronomy & Cosmology" style="rounded=1;whiteSpace=wrap;html=1;fillColor=#ffffff;strokeColor=#c62828;fontSize=11;" vertex="1" parent="1">
          <mxGeometry x="500" y="380" width="160" height="30" as="geometry"/>
        </mxCell>
        <mxCell id="203" value="AI, Genomics, Quantum & Space" style="rounded=1;whiteSpace=wrap;html=1;fillColor=#ffffff;strokeColor=#c62828;fontSize=11;" vertex="1" parent="1">
          <mxGeometry x="680" y="380" width="160" height="30" as="geometry"/>
        </mxCell>
        <mxCell id="e201" edge="1" parent="1" source="20" target="201"><mxGeometry relative="1" as="geometry"/></mxCell>
        <mxCell id="e202" edge="1" parent="1" source="20" target="202"><mxGeometry relative="1" as="geometry"/></mxCell>
        <mxCell id="e203" edge="1" parent="1" source="20" target="203"><mxGeometry relative="1" as="geometry"/></mxCell>

      </root>
    </mxGraphModel>
  </diagram>
</mxfile>

